<svg width="325" height="325" viewBox="0 0 325 325" fill="none" xmlns="http://www.w3.org/2000/svg">
<circle cx="162.5" cy="162.5" r="162.5" fill="white"/>
<path d="M143 85.5C143 75.2827 151.283 67 161.5 67C171.717 67 180 75.2827 180 85.5V229H143V85.5Z" fill="#270179" stroke="#270179" stroke-width="4"/>
<path d="M55.0656 109.869C48.4893 103.293 48.4893 92.6304 55.0656 86.0541C61.6419 79.4778 72.3042 79.4778 78.8805 86.0541L141.02 148.193L117.205 172.008L55.0656 109.869Z" fill="#00D1FF"/>
<path d="M117.193 124.37L141.008 148.185L61.7222 227.471C55.1459 234.047 44.4837 234.047 37.9074 227.471C31.3311 220.895 31.3311 210.232 37.9074 203.656L117.193 124.37Z" fill="#00D1FF"/>
<path d="M76.9167 131.72C70.3404 125.144 70.3404 114.482 76.9167 107.905C83.493 101.329 94.1552 101.329 100.732 107.905L141.02 148.194L117.205 172.008L76.9167 131.72Z" fill="#270179"/>
<path d="M117.193 124.37L141.008 148.185L89.1229 200.07C82.5466 206.647 71.8843 206.647 65.308 200.07C58.7317 193.494 58.7317 182.832 65.308 176.256L117.193 124.37Z" fill="#270179"/>
<path d="M267.956 109.69C274.532 103.12 274.532 92.4672 267.956 85.8968C261.38 79.3264 250.718 79.3264 244.141 85.8968L182.001 147.984L205.815 171.777L267.956 109.69Z" fill="#00D1FF"/>
<path d="M205.829 124.324L182.015 148.118L261.299 227.333C267.875 233.904 278.537 233.904 285.113 227.333C291.689 220.763 291.689 210.11 285.113 203.54L205.829 124.324Z" fill="#00D1FF"/>
<path d="M246.103 131.722C252.679 125.146 252.679 114.484 246.103 107.907C239.527 101.331 228.864 101.331 222.288 107.907L182 148.196L205.815 172.011L246.103 131.722Z" fill="#270179"/>
<path d="M205.826 124.372L182.011 148.187L233.897 200.073C240.473 206.649 251.135 206.649 257.712 200.073C264.288 193.496 264.288 182.834 257.712 176.258L205.826 124.372Z" fill="#270179"/>
<path d="M160.389 256.369C161.61 258.107 164.201 258.061 165.359 256.281L174 243H151L160.389 256.369Z" fill="#270179"/>
</svg>
