<svg width="48" height="43" viewBox="0 0 48 43" fill="none" xmlns="http://www.w3.org/2000/svg">
<path d="M47.9833 21.2917C47.9833 22.7917 46.7333 23.9667 45.3167 23.9667H42.65L42.7083 37.3167C42.7083 37.5417 42.6917 37.7667 42.6667 37.9917V39.3333C42.6667 41.175 41.175 42.6667 39.3333 42.6667H38C37.9083 42.6667 37.8167 42.6667 37.725 42.6583C37.6083 42.6667 37.4917 42.6667 37.375 42.6667H34.6667H32.6667C30.825 42.6667 29.3333 41.175 29.3333 39.3333V37.3333V32C29.3333 30.525 28.1417 29.3333 26.6667 29.3333H21.3333C19.8583 29.3333 18.6667 30.525 18.6667 32V37.3333V39.3333C18.6667 41.175 17.175 42.6667 15.3333 42.6667H13.3333H10.675C10.55 42.6667 10.425 42.6583 10.3 42.65C10.2 42.6583 10.1 42.6667 10 42.6667H8.66667C6.825 42.6667 5.33333 41.175 5.33333 39.3333V30C5.33333 29.925 5.33333 29.8417 5.34167 29.7667V23.9667H2.66667C1.16667 23.9667 0 22.8 0 21.2917C0 20.5417 0.25 19.875 0.833333 19.2917L22.2 0.666667C22.7833 0.0833333 23.45 0 24.0333 0C24.6167 0 25.2833 0.166667 25.7833 0.583333L47.0667 19.2917C47.7333 19.875 48.0667 20.5417 47.9833 21.2917Z" fill="#8A38F5"/>
</svg>
